<svg id="visual" viewBox="0 0 960 540" width="960" height="540" xmlns="http://www.w3.org/2000/svg" xmlns:xlink="http://www.w3.org/1999/xlink" version="1.1"><rect x="0" y="0" width="960" height="540" fill="#002233"></rect><path d="M0 416L11.5 408.7C23 401.3 46 386.7 68.8 378C91.7 369.3 114.3 366.7 137.2 381.2C160 395.7 183 427.3 205.8 448.5C228.7 469.7 251.3 480.3 274.2 485.5C297 490.7 320 490.3 342.8 491C365.7 491.7 388.3 493.3 411.2 487.7C434 482 457 469 480 456.7C503 444.3 526 432.7 548.8 419.5C571.7 406.3 594.3 391.7 617.2 396.5C640 401.3 663 425.7 685.8 423.7C708.7 421.7 731.3 393.3 754.2 399.5C777 405.7 800 446.3 822.8 454.8C845.7 463.3 868.3 439.7 891.2 425.3C914 411 937 406 948.5 403.5L960 401L960 541L948.5 541C937 541 914 541 891.2 541C868.3 541 845.7 541 822.8 541C800 541 777 541 754.2 541C731.3 541 708.7 541 685.8 541C663 541 640 541 617.2 541C594.3 541 571.7 541 548.8 541C526 541 503 541 480 541C457 541 434 541 411.2 541C388.3 541 365.7 541 342.8 541C320 541 297 541 274.2 541C251.3 541 228.7 541 205.8 541C183 541 160 541 137.2 541C114.3 541 91.7 541 68.8 541C46 541 23 541 11.5 541L0 541Z" fill="#0066FF" stroke-linecap="round" stroke-linejoin="miter"></path></svg>